<svg xmlns="http://www.w3.org/2000/svg" viewBox="0 0 484.29 155.69"><defs><style>.cls-1{fill:#eb8032;}.cls-2{fill:#2e617d;}</style></defs><g id="Layer_2" data-name="Layer 2"><g id="F"><g id="F-2" data-name="F"><path class="cls-1" d="M79.76,54.94a50.53,50.53,0,0,0-16.63-2.55c-11.73,0-20.48,4-20.48,19.4V82H75.5v7.89c0,10.24-10.88,16.21-20.48,16.21H42.65v76.78H31.14a17,17,0,0,1-17.28-17.06V69.45c0-16.21,11.31-42.23,44.79-42.23,12.37,0,22,6.82,22,18.13v9.59Z" transform="translate(-13.86 -27.22)"/></g></g><g id="R"><g id="R-2" data-name="R"><path class="cls-1" d="M155.76,94.91a41.26,41.26,0,0,0-16.63-3.41c-12.8,0-19.84,7-19.84,24.52v66.12H111.4c-12.8,0-20.9-6.4-20.9-18.34V110.9c0-23,12.16-45,42.44-45,17.7,0,23.89,10,23.89,18.77V94.91Z" transform="translate(-13.86 -27.22)"/></g></g><g id="O"><g id="O-2" data-name="O"><path class="cls-2" d="M224.13,62c34.55,0,54.38,27.73,54.38,58.22,0,34.55-19.83,62.07-56.94,62.07-34.55,0-54.38-27.52-54.38-58C167.19,89.69,187,62,224.13,62Zm-2.56,25.59c-16.42,0-24.74,13.65-24.74,32.63,0,22.82,8.32,36.47,27.3,36.47,16.63,0,24.74-13.65,24.74-32.41C248.87,101.2,240.34,87.55,221.57,87.55Z" transform="translate(-13.86 -27.22)"/></g></g><g id="N"><g id="N-2" data-name="N"><path class="cls-1" d="M394.83,180.63c-12.79,0-20.9-8.1-20.9-18.77V116.22c0-19.4-8.53-27.93-23.24-27.93-12.37,0-20.9,9.38-20.9,25.8v66.54h-8.53c-12.16,0-20.05-8.1-20.05-18.77V112.17c0-24.31,16-49.26,51.82-49.26,27.09,0,49.48,18.12,49.48,50.76v67Z" transform="translate(-13.86 -27.22)"/></g></g><g id="T"><g id="T-2" data-name="T"><path class="cls-1" d="M438.22,47.34c3.84-4.48,9-7.89,13.44-7.89h6.61v26h39.88V77.2c0,6-5.33,13.64-17.06,13.64H458.27v45c0,14.92,6.61,20.68,18.13,20.68,9.17,0,16.2-1.28,20.68-4.05h1.07v10.24c0,11.73-8.53,19.19-25.17,19.19-29,0-43.08-15.78-43.08-42.65V70.16C429.9,58.85,432,54.59,438.22,47.34Z" transform="translate(-13.86 -27.22)"/></g></g></g></svg>