<svg xmlns="http://www.w3.org/2000/svg" viewBox="0 0 540.99 240.82"><defs><style>.cls-1{fill:#eb8032;}.cls-2{fill:#2e617d;}</style></defs><g id="Layer_2" data-name="Layer 2"><g id="F"><g id="F-2" data-name="F"><path class="cls-1" d="M103.13,54.94A50.48,50.48,0,0,0,86.5,52.39c-11.73,0-20.48,4-20.48,19.4V82H98.87v7.89c0,10.24-10.88,16.21-20.47,16.21H66v76.78H54.51a17,17,0,0,1-17.28-17.06V69.45c0-16.21,11.31-42.23,44.79-42.23,12.37,0,22,6.82,22,18.13v9.59Z" transform="translate(-5.17 -27.22)"/></g></g><g id="R"><g id="R-2" data-name="R"><path class="cls-1" d="M179.13,94.91A41.26,41.26,0,0,0,162.5,91.5c-12.8,0-19.84,7-19.84,24.52v66.12h-7.89c-12.79,0-20.9-6.4-20.9-18.34V110.9c0-23,12.16-45,42.44-45,17.7,0,23.89,10,23.89,18.77V94.91Z" transform="translate(-5.17 -27.22)"/></g></g><g id="O"><g id="O-2" data-name="O"><path class="cls-2" d="M247.5,62c34.55,0,54.38,27.73,54.38,58.22,0,34.55-19.83,62.07-56.94,62.07-34.55,0-54.38-27.52-54.38-58C190.56,89.69,210.39,62,247.5,62Zm-2.56,25.59c-16.42,0-24.74,13.65-24.74,32.63,0,22.82,8.32,36.47,27.3,36.47,16.63,0,24.74-13.65,24.74-32.41C272.24,101.2,263.71,87.55,244.94,87.55Z" transform="translate(-5.17 -27.22)"/></g></g><g id="N"><g id="N-2" data-name="N"><path class="cls-1" d="M418.21,180.63c-12.8,0-20.91-8.1-20.91-18.77V116.22c0-19.4-8.53-27.93-23.24-27.93-12.37,0-20.9,9.38-20.9,25.8v66.54h-8.53c-12.16,0-20.05-8.1-20.05-18.77V112.17c0-24.31,16-49.26,51.82-49.26,27.09,0,49.48,18.12,49.48,50.76v67Z" transform="translate(-5.17 -27.22)"/></g></g><g id="T"><g id="T-2" data-name="T"><path class="cls-1" d="M461.59,47.34c3.84-4.48,9-7.89,13.44-7.89h6.61v26h39.88V77.2c0,6-5.33,13.64-17.06,13.64H481.64v45c0,14.92,6.61,20.68,18.13,20.68,9.17,0,16.21-1.28,20.68-4.05h1.07v10.24c0,11.73-8.53,19.19-25.17,19.19-29,0-43.08-15.78-43.08-42.65V70.16C453.27,58.85,455.41,54.59,461.59,47.34Z" transform="translate(-5.17 -27.22)"/></g></g><g id="Digital"><path class="cls-2" d="M5.17,211.8H25c14.28,0,24.07,8.6,24.07,21.82S39.28,255.44,25,255.44H5.17ZM24.5,247.15c8.67,0,14.34-5.17,14.34-13.53s-5.67-13.53-14.34-13.53H15.27v27.06Z" transform="translate(-5.17 -27.22)"/><path class="cls-2" d="M54.8,211.8c0-3.05,2.43-5.42,6.05-5.42s6,2.24,6,5.23c0,3.25-2.43,5.62-6,5.62S54.8,214.86,54.8,211.8ZM56,221.9h9.73v33.54H56Z" transform="translate(-5.17 -27.22)"/><path class="cls-2" d="M109.35,221.9v27.93c0,12.47-6.73,18.21-18.83,18.21-6.36,0-12.53-1.56-16.46-4.62l3.87-7a20,20,0,0,0,11.84,3.8c6.86,0,9.86-3.11,9.86-9.16v-1.43c-2.56,2.8-6.24,4.17-10.6,4.17-9.29,0-16.78-6.42-16.78-16.21S79.74,221.4,89,221.4c4.67,0,8.54,1.56,11.09,4.8v-4.3Zm-9.6,15.71c0-4.92-3.68-8.23-8.79-8.23s-8.85,3.31-8.85,8.23,3.74,8.23,8.85,8.23S99.75,242.54,99.75,237.61Z" transform="translate(-5.17 -27.22)"/><path class="cls-2" d="M117.2,211.8c0-3.05,2.44-5.42,6-5.42s6.05,2.24,6.05,5.23c0,3.25-2.43,5.62-6.05,5.62S117.2,214.86,117.2,211.8Zm1.19,10.1h9.72v33.54h-9.72Z" transform="translate(-5.17 -27.22)"/><path class="cls-2" d="M157.35,253.82a13.75,13.75,0,0,1-7.85,2.12c-8,0-12.53-4.05-12.53-12V214.48h9.72v8.17H155v7.48h-8.29v13.65c0,2.87,1.5,4.43,4.12,4.43a6.92,6.92,0,0,0,4-1.25Z" transform="translate(-5.17 -27.22)"/><path class="cls-2" d="M195.82,221.9v33.54h-9.29v-3.86c-2.43,2.93-6,4.36-10.47,4.36-9.48,0-16.78-6.73-16.78-17.27s7.3-17.27,16.78-17.27c4.11,0,7.6,1.31,10,4V221.9Zm-9.54,16.77c0-5.8-3.74-9.29-8.54-9.29s-8.61,3.49-8.61,9.29,3.75,9.29,8.61,9.29S186.28,244.47,186.28,238.67Z" transform="translate(-5.17 -27.22)"/><path class="cls-2" d="M204.79,244.35V209.18h9.73v34.6c0,2.87,1.5,4.43,4.18,4.43a6.37,6.37,0,0,0,2.74-.62l.44,7.54a15.92,15.92,0,0,1-5,.81C209.28,255.94,204.79,251.83,204.79,244.35Z" transform="translate(-5.17 -27.22)"/></g><g id="Udvikling"><g id="udvikling-2" data-name="udvikling"><path class="cls-2" d="M278.09,221.9v33.54h-9.23v-4a13.55,13.55,0,0,1-10.41,4.49c-8.42,0-14.34-4.74-14.34-15.09V221.9h9.73v17.52c0,5.61,2.49,8.1,6.79,8.1,4.49,0,7.73-2.87,7.73-9V221.9Z" transform="translate(-5.17 -27.22)"/><path class="cls-2" d="M321.29,209.18v46.26H312v-3.87c-2.43,2.93-6,4.37-10.47,4.37-9.48,0-16.77-6.74-16.77-17.27s7.29-17.27,16.77-17.27c4.11,0,7.61,1.31,10,4V209.18Zm-9.54,29.49c0-5.8-3.74-9.29-8.54-9.29s-8.6,3.49-8.6,9.29,3.74,9.29,8.6,9.29S311.75,244.47,311.75,238.67Z" transform="translate(-5.17 -27.22)"/><path class="cls-2" d="M363.56,221.9l-14.15,33.54h-10L325.28,221.9h10l9.29,22.82,9.6-22.82Z" transform="translate(-5.17 -27.22)"/><path class="cls-2" d="M366.37,211.8c0-3.06,2.43-5.43,6-5.43s6,2.25,6,5.24c0,3.24-2.43,5.61-6,5.61S366.37,214.85,366.37,211.8Zm1.18,10.1h9.73v33.54h-9.73Z" transform="translate(-5.17 -27.22)"/><path class="cls-2" d="M400.72,242.28,396,246.9v8.54h-9.73V209.18H396v26.18l14.22-13.46h11.59l-14,14.21,15.21,19.33H411.32Z" transform="translate(-5.17 -27.22)"/><path class="cls-2" d="M427.46,244.34V209.18h9.73v34.6c0,2.87,1.49,4.43,4.17,4.43a6.3,6.3,0,0,0,2.75-.63l.43,7.55a15.83,15.83,0,0,1-5.05.81C432,255.94,427.46,251.82,427.46,244.34Z" transform="translate(-5.17 -27.22)"/><path class="cls-2" d="M448.16,211.8c0-3.06,2.43-5.43,6-5.43s6,2.25,6,5.24c0,3.24-2.43,5.61-6,5.61S448.16,214.85,448.16,211.8Zm1.18,10.1h9.73v33.54h-9.73Z" transform="translate(-5.17 -27.22)"/><path class="cls-2" d="M502.4,236.24v19.2h-9.73V237.73c0-5.42-2.49-7.92-6.79-7.92-4.68,0-8.05,2.87-8.05,9v16.59h-9.72V221.9h9.29v3.92a14.7,14.7,0,0,1,11.1-4.42C496.41,221.4,502.4,226,502.4,236.24Z" transform="translate(-5.17 -27.22)"/><path class="cls-2" d="M546.16,221.9v27.93c0,12.47-6.73,18.2-18.83,18.2-6.36,0-12.53-1.56-16.46-4.61l3.87-7a20.08,20.08,0,0,0,11.84,3.8c6.86,0,9.86-3.12,9.86-9.17v-1.43c-2.56,2.81-6.24,4.18-10.6,4.18-9.29,0-16.77-6.42-16.77-16.21s7.48-16.21,16.77-16.21c4.67,0,8.54,1.56,11.09,4.8v-4.3Zm-9.6,15.71c0-4.93-3.68-8.23-8.79-8.23s-8.85,3.3-8.85,8.23,3.74,8.23,8.85,8.23S536.56,242.53,536.56,237.61Z" transform="translate(-5.17 -27.22)"/></g></g></g></svg>